<svg width="76" height="26" viewBox="0 0 76 26" fill="none" xmlns="http://www.w3.org/2000/svg">
<rect y="0.5" width="76" height="25" rx="12.5" fill="#04D58D"/>
<path d="M9.97869 18.5H8.34801L12.0121 8.31818H13.7869L17.451 18.5H15.8203L12.9418 10.1676H12.8622L9.97869 18.5ZM10.2521 14.5128H15.5419V15.8054H10.2521V14.5128ZM24.3777 10.8636L21.6085 18.5H20.0176L17.2434 10.8636H18.8393L20.7733 16.7401H20.8528L22.7818 10.8636H24.3777ZM27.7782 18.669C27.2943 18.669 26.8568 18.5795 26.4657 18.4006C26.0746 18.2183 25.7647 17.9548 25.536 17.6101C25.3107 17.2654 25.198 16.8428 25.198 16.3423C25.198 15.9115 25.2808 15.5568 25.4466 15.2784C25.6123 15 25.836 14.7796 26.1177 14.6172C26.3994 14.4548 26.7143 14.3321 27.0623 14.2493C27.4103 14.1664 27.765 14.1035 28.1262 14.0604C28.5836 14.0073 28.9548 13.9643 29.2399 13.9311C29.5249 13.8946 29.7321 13.8366 29.8613 13.7571C29.9906 13.6776 30.0552 13.5483 30.0552 13.3693V13.3345C30.0552 12.9003 29.9326 12.5639 29.6873 12.3253C29.4454 12.0866 29.0841 11.9673 28.6035 11.9673C28.103 11.9673 27.7086 12.0784 27.4203 12.3004C27.1352 12.5192 26.938 12.7628 26.8287 13.0312L25.4316 12.7131C25.5974 12.2491 25.8393 11.8745 26.1575 11.5895C26.479 11.3011 26.8485 11.0923 27.2662 10.9631C27.6838 10.8305 28.1229 10.7642 28.5836 10.7642C28.8886 10.7642 29.2117 10.8007 29.5531 10.8736C29.8978 10.9432 30.2193 11.0724 30.5176 11.2614C30.8192 11.4503 31.0661 11.7204 31.2583 12.0717C31.4506 12.4197 31.5467 12.8722 31.5467 13.429V18.5H30.095V17.456H30.0353C29.9392 17.6482 29.795 17.8371 29.6028 18.0227C29.4106 18.2083 29.1636 18.3625 28.862 18.4851C28.5604 18.6077 28.1992 18.669 27.7782 18.669ZM28.1014 17.4759C28.5124 17.4759 28.8637 17.3946 29.1554 17.2322C29.4503 17.0698 29.6741 16.8577 29.8265 16.5959C29.9823 16.3307 30.0602 16.0473 30.0602 15.7457V14.7614C30.0072 14.8144 29.9044 14.8641 29.752 14.9105C29.6028 14.9536 29.4321 14.9917 29.2399 15.0249C29.0476 15.0547 28.8604 15.0829 28.6781 15.1094C28.4958 15.1326 28.3433 15.1525 28.2207 15.169C27.9324 15.2055 27.6689 15.2668 27.4302 15.353C27.1949 15.4392 27.006 15.5634 26.8635 15.7259C26.7243 15.8849 26.6547 16.0971 26.6547 16.3622C26.6547 16.7301 26.7905 17.0085 27.0623 17.1974C27.3341 17.383 27.6805 17.4759 28.1014 17.4759ZM33.5266 18.5V10.8636H35.0131V18.5H33.5266ZM34.2773 9.68537C34.0188 9.68537 33.7968 9.59919 33.6112 9.42685C33.4289 9.25118 33.3377 9.04238 33.3377 8.80043C33.3377 8.55516 33.4289 8.34635 33.6112 8.17401C33.7968 7.99834 34.0188 7.91051 34.2773 7.91051C34.5359 7.91051 34.7563 7.99834 34.9386 8.17401C35.1242 8.34635 35.217 8.55516 35.217 8.80043C35.217 9.04238 35.1242 9.25118 34.9386 9.42685C34.7563 9.59919 34.5359 9.68537 34.2773 9.68537ZM38.4995 8.31818V18.5H37.013V8.31818H38.4995ZM42.7216 18.669C42.2377 18.669 41.8002 18.5795 41.4091 18.4006C41.018 18.2183 40.7081 17.9548 40.4794 17.6101C40.254 17.2654 40.1413 16.8428 40.1413 16.3423C40.1413 15.9115 40.2242 15.5568 40.3899 15.2784C40.5556 15 40.7794 14.7796 41.0611 14.6172C41.3428 14.4548 41.6577 14.3321 42.0057 14.2493C42.3537 14.1664 42.7083 14.1035 43.0696 14.0604C43.527 14.0073 43.8982 13.9643 44.1832 13.9311C44.4683 13.8946 44.6754 13.8366 44.8047 13.7571C44.9339 13.6776 44.9986 13.5483 44.9986 13.3693V13.3345C44.9986 12.9003 44.8759 12.5639 44.6307 12.3253C44.3887 12.0866 44.0275 11.9673 43.5469 11.9673C43.0464 11.9673 42.652 12.0784 42.3636 12.3004C42.0786 12.5192 41.8814 12.7628 41.772 13.0312L40.375 12.7131C40.5407 12.2491 40.7827 11.8745 41.1009 11.5895C41.4223 11.3011 41.7919 11.0923 42.2095 10.9631C42.6271 10.8305 43.0663 10.7642 43.527 10.7642C43.8319 10.7642 44.1551 10.8007 44.4964 10.8736C44.8411 10.9432 45.1626 11.0724 45.4609 11.2614C45.7625 11.4503 46.0095 11.7204 46.2017 12.0717C46.3939 12.4197 46.4901 12.8722 46.4901 13.429V18.5H45.0384V17.456H44.9787C44.8826 17.6482 44.7384 17.8371 44.5462 18.0227C44.3539 18.2083 44.107 18.3625 43.8054 18.4851C43.5038 18.6077 43.1425 18.669 42.7216 18.669ZM43.0447 17.4759C43.4557 17.4759 43.8071 17.3946 44.0987 17.2322C44.3937 17.0698 44.6174 16.8577 44.7699 16.5959C44.9257 16.3307 45.0036 16.0473 45.0036 15.7457V14.7614C44.9505 14.8144 44.8478 14.8641 44.6953 14.9105C44.5462 14.9536 44.3755 14.9917 44.1832 15.0249C43.991 15.0547 43.8037 15.0829 43.6214 15.1094C43.4392 15.1326 43.2867 15.1525 43.1641 15.169C42.8757 15.2055 42.6122 15.2668 42.3736 15.353C42.1383 15.4392 41.9493 15.5634 41.8068 15.7259C41.6676 15.8849 41.598 16.0971 41.598 16.3622C41.598 16.7301 41.7339 17.0085 42.0057 17.1974C42.2775 17.383 42.6238 17.4759 43.0447 17.4759ZM48.5893 18.5V8.31818H50.0758V12.1016H50.1653C50.2515 11.9425 50.3758 11.7585 50.5382 11.5497C50.7006 11.3409 50.926 11.1586 51.2143 11.0028C51.5027 10.8438 51.8838 10.7642 52.3578 10.7642C52.9743 10.7642 53.5244 10.92 54.0083 11.2315C54.4922 11.5431 54.8717 11.9922 55.1468 12.5788C55.4252 13.1655 55.5645 13.8714 55.5645 14.6967C55.5645 15.522 55.4269 16.2296 55.1518 16.8196C54.8767 17.4062 54.4989 17.8587 54.0183 18.1768C53.5377 18.4917 52.9892 18.6491 52.3727 18.6491C51.9087 18.6491 51.5292 18.5713 51.2342 18.4155C50.9425 18.2597 50.7138 18.0774 50.5481 17.8686C50.3824 17.6598 50.2548 17.4742 50.1653 17.3118H50.041V18.5H48.5893ZM50.046 14.6818C50.046 15.2187 50.1239 15.6894 50.2797 16.0938C50.4354 16.4981 50.6608 16.8146 50.9558 17.0433C51.2508 17.2687 51.612 17.3814 52.0396 17.3814C52.4837 17.3814 52.8549 17.2637 53.1532 17.0284C53.4515 16.7898 53.6769 16.4666 53.8294 16.0589C53.9851 15.6513 54.063 15.1922 54.063 14.6818C54.063 14.178 53.9868 13.7256 53.8343 13.3246C53.6852 12.9235 53.4598 12.607 53.1582 12.375C52.8599 12.143 52.487 12.027 52.0396 12.027C51.6087 12.027 51.2441 12.138 50.9458 12.3601C50.6509 12.5821 50.4271 12.892 50.2747 13.2898C50.1222 13.6875 50.046 14.1515 50.046 14.6818ZM58.7202 8.31818V18.5H57.2337V8.31818H58.7202ZM64.0112 18.6541C63.2588 18.6541 62.6109 18.4934 62.0673 18.1719C61.527 17.8471 61.1094 17.3913 60.8145 16.8047C60.5228 16.2147 60.377 15.5237 60.377 14.7315C60.377 13.9493 60.5228 13.2599 60.8145 12.6634C61.1094 12.0668 61.5204 11.6011 62.0474 11.2663C62.5777 10.9316 63.1975 10.7642 63.9068 10.7642C64.3377 10.7642 64.7553 10.8355 65.1596 10.978C65.564 11.1205 65.9269 11.3442 66.2484 11.6491C66.5699 11.9541 66.8234 12.3501 67.0091 12.8374C67.1947 13.3213 67.2875 13.9096 67.2875 14.6023V15.1293H61.2172V14.0156H65.8308C65.8308 13.6245 65.7512 13.2782 65.5922 12.9766C65.4331 12.6716 65.2093 12.4313 64.921 12.2557C64.6359 12.08 64.3012 11.9922 63.9167 11.9922C63.4991 11.9922 63.1345 12.0949 62.823 12.3004C62.5147 12.5026 62.2761 12.7678 62.1071 13.0959C61.9413 13.4207 61.8585 13.7737 61.8585 14.1548V15.0249C61.8585 15.5353 61.948 15.9695 62.127 16.3274C62.3092 16.6854 62.5628 16.9588 62.8876 17.1477C63.2124 17.3333 63.5919 17.4261 64.0261 17.4261C64.3078 17.4261 64.5647 17.3864 64.7967 17.3068C65.0287 17.224 65.2292 17.1013 65.3983 16.9389C65.5673 16.7765 65.6966 16.576 65.786 16.3374L67.193 16.5909C67.0803 17.0052 66.8781 17.3681 66.5865 17.6797C66.2981 17.9879 65.9352 18.2282 65.4977 18.4006C65.0635 18.5696 64.568 18.6541 64.0112 18.6541Z" fill="white"/>
</svg>
