<svg width="84" height="26" viewBox="0 0 84 26" fill="none" xmlns="http://www.w3.org/2000/svg">
<rect y="0.5" width="84" height="25" rx="12.5" fill="#F2C94C"/>
<path d="M9.11861 18.5V8.31818H15.4325V9.64062H10.6548V12.7429H14.9801V14.0604H10.6548V18.5H9.11861ZM18.6889 8.31818V18.5H17.2024V8.31818H18.6889ZM22.911 18.669C22.4271 18.669 21.9896 18.5795 21.5985 18.4006C21.2074 18.2183 20.8975 17.9548 20.6689 17.6101C20.4435 17.2654 20.3308 16.8428 20.3308 16.3423C20.3308 15.9115 20.4136 15.5568 20.5794 15.2784C20.7451 15 20.9688 14.7796 21.2505 14.6172C21.5323 14.4548 21.8471 14.3321 22.1951 14.2493C22.5431 14.1664 22.8978 14.1035 23.2591 14.0604C23.7164 14.0073 24.0877 13.9643 24.3727 13.9311C24.6577 13.8946 24.8649 13.8366 24.9941 13.7571C25.1234 13.6776 25.188 13.5483 25.188 13.3693V13.3345C25.188 12.9003 25.0654 12.5639 24.8201 12.3253C24.5782 12.0866 24.2169 11.9673 23.7363 11.9673C23.2359 11.9673 22.8414 12.0784 22.5531 12.3004C22.2681 12.5192 22.0708 12.7628 21.9615 13.0312L20.5645 12.7131C20.7302 12.2491 20.9721 11.8745 21.2903 11.5895C21.6118 11.3011 21.9814 11.0923 22.399 10.9631C22.8166 10.8305 23.2557 10.7642 23.7164 10.7642C24.0214 10.7642 24.3445 10.8007 24.6859 10.8736C25.0306 10.9432 25.3521 11.0724 25.6504 11.2614C25.952 11.4503 26.1989 11.7204 26.3912 12.0717C26.5834 12.4197 26.6795 12.8722 26.6795 13.429V18.5H25.2278V17.456H25.1681C25.072 17.6482 24.9279 17.8371 24.7356 18.0227C24.5434 18.2083 24.2965 18.3625 23.9949 18.4851C23.6932 18.6077 23.332 18.669 22.911 18.669ZM23.2342 17.4759C23.6452 17.4759 23.9965 17.3946 24.2882 17.2322C24.5832 17.0698 24.8069 16.8577 24.9593 16.5959C25.1151 16.3307 25.193 16.0473 25.193 15.7457V14.7614C25.14 14.8144 25.0372 14.8641 24.8848 14.9105C24.7356 14.9536 24.5649 14.9917 24.3727 15.0249C24.1805 15.0547 23.9932 15.0829 23.8109 15.1094C23.6286 15.1326 23.4761 15.1525 23.3535 15.169C23.0652 15.2055 22.8017 15.2668 22.563 15.353C22.3277 15.4392 22.1388 15.5634 21.9963 15.7259C21.8571 15.8849 21.7875 16.0971 21.7875 16.3622C21.7875 16.7301 21.9234 17.0085 22.1951 17.1974C22.4669 17.383 22.8133 17.4759 23.2342 17.4759ZM34.3817 12.728L33.0344 12.9666C32.9781 12.7943 32.8886 12.6302 32.766 12.4744C32.6467 12.3187 32.4843 12.1911 32.2788 12.0916C32.0733 11.9922 31.8164 11.9425 31.5082 11.9425C31.0872 11.9425 30.7359 12.0369 30.4542 12.2259C30.1725 12.4115 30.0316 12.6518 30.0316 12.9467C30.0316 13.2019 30.1261 13.4074 30.315 13.5632C30.5039 13.719 30.8088 13.8466 31.2298 13.946L32.4428 14.2244C33.1455 14.3868 33.6692 14.6371 34.0138 14.9751C34.3585 15.3132 34.5309 15.7524 34.5309 16.2926C34.5309 16.75 34.3983 17.1577 34.1332 17.5156C33.8713 17.8703 33.5051 18.1487 33.0344 18.3509C32.5671 18.553 32.0252 18.6541 31.4087 18.6541C30.5536 18.6541 29.8559 18.4718 29.3157 18.1072C28.7754 17.7393 28.444 17.2173 28.3214 16.5412L29.7582 16.3224C29.8477 16.697 30.0316 16.9804 30.31 17.1726C30.5884 17.3615 30.9513 17.456 31.3988 17.456C31.886 17.456 32.2754 17.3549 32.5671 17.1527C32.8588 16.9472 33.0046 16.697 33.0046 16.402C33.0046 16.1634 32.9151 15.9628 32.7362 15.8004C32.5605 15.638 32.2904 15.5154 31.9258 15.4325L30.6332 15.1491C29.9206 14.9867 29.3936 14.7282 29.0522 14.3736C28.7141 14.0189 28.5451 13.5698 28.5451 13.0263C28.5451 12.5755 28.671 12.1811 28.9229 11.843C29.1748 11.505 29.5228 11.2415 29.967 11.0526C30.4111 10.8603 30.9199 10.7642 31.4933 10.7642C32.3185 10.7642 32.9682 10.9432 33.4421 11.3011C33.9161 11.6558 34.2293 12.1314 34.3817 12.728ZM37.6518 13.9659V18.5H36.1653V8.31818H37.6319V12.1065H37.7264C37.9054 11.6955 38.1788 11.3691 38.5467 11.1271C38.9146 10.8852 39.3952 10.7642 39.9885 10.7642C40.5121 10.7642 40.9695 10.8719 41.3606 11.0874C41.755 11.3028 42.06 11.6243 42.2754 12.0518C42.4941 12.4761 42.6035 13.0064 42.6035 13.6428V18.5H41.117V13.8217C41.117 13.2616 40.9728 12.8274 40.6845 12.5192C40.3961 12.2076 39.9951 12.0518 39.4814 12.0518C39.13 12.0518 38.8152 12.1264 38.5368 12.2756C38.2617 12.4247 38.0446 12.6435 37.8855 12.9318C37.7297 13.2169 37.6518 13.5616 37.6518 13.9659ZM53.9648 10.9929C53.9118 10.5223 53.6931 10.1577 53.3086 9.89915C52.9241 9.63731 52.4402 9.50639 51.8569 9.50639C51.4393 9.50639 51.078 9.57268 50.7731 9.70526C50.4682 9.83452 50.2312 10.0135 50.0621 10.2422C49.8964 10.4676 49.8136 10.7244 49.8136 11.0128C49.8136 11.2547 49.8699 11.4635 49.9826 11.6392C50.0986 11.8149 50.2494 11.9624 50.435 12.0817C50.6239 12.1977 50.8261 12.2955 51.0415 12.375C51.257 12.4512 51.4641 12.5142 51.663 12.5639L52.6573 12.8224C52.9821 12.902 53.3152 13.0097 53.6566 13.1456C53.998 13.2815 54.3145 13.4605 54.6062 13.6825C54.8978 13.9046 55.1332 14.1797 55.3121 14.5078C55.4944 14.8359 55.5856 15.2287 55.5856 15.6861C55.5856 16.2628 55.4364 16.7749 55.1381 17.2223C54.8432 17.6697 54.4139 18.0227 53.8505 18.2812C53.2904 18.5398 52.6126 18.669 51.8171 18.669C51.0548 18.669 50.3952 18.5481 49.8384 18.3061C49.2816 18.0642 48.8458 17.7211 48.5309 17.277C48.216 16.8295 48.042 16.2992 48.0089 15.6861H49.5501C49.5799 16.054 49.6992 16.3606 49.908 16.6058C50.1201 16.8478 50.3903 17.0284 50.7184 17.1477C51.0498 17.2637 51.4128 17.3217 51.8072 17.3217C52.2414 17.3217 52.6275 17.2538 52.9656 17.1179C53.3069 16.9787 53.5754 16.7865 53.771 16.5412C53.9665 16.2926 54.0643 16.0026 54.0643 15.6712C54.0643 15.3696 53.9781 15.1226 53.8058 14.9304C53.6367 14.7382 53.4064 14.5791 53.1147 14.4531C52.8263 14.3272 52.4999 14.2161 52.1353 14.12L50.9322 13.7919C50.1168 13.5698 49.4705 13.2434 48.9933 12.8125C48.5193 12.3816 48.2823 11.8116 48.2823 11.1023C48.2823 10.5156 48.4414 10.0036 48.7596 9.56605C49.0778 9.12855 49.5086 8.78883 50.0522 8.54688C50.5958 8.30161 51.2089 8.17898 51.8917 8.17898C52.5811 8.17898 53.1893 8.29995 53.7163 8.5419C54.2466 8.78385 54.6642 9.11695 54.9691 9.54119C55.274 9.96212 55.4331 10.446 55.4464 10.9929H53.9648ZM59.5243 18.669C59.0404 18.669 58.6029 18.5795 58.2118 18.4006C57.8207 18.2183 57.5108 17.9548 57.2821 17.6101C57.0568 17.2654 56.9441 16.8428 56.9441 16.3423C56.9441 15.9115 57.0269 15.5568 57.1926 15.2784C57.3584 15 57.5821 14.7796 57.8638 14.6172C58.1455 14.4548 58.4604 14.3321 58.8084 14.2493C59.1564 14.1664 59.5111 14.1035 59.8723 14.0604C60.3297 14.0073 60.7009 13.9643 60.986 13.9311C61.271 13.8946 61.4782 13.8366 61.6074 13.7571C61.7367 13.6776 61.8013 13.5483 61.8013 13.3693V13.3345C61.8013 12.9003 61.6787 12.5639 61.4334 12.3253C61.1915 12.0866 60.8302 11.9673 60.3496 11.9673C59.8491 11.9673 59.4547 12.0784 59.1664 12.3004C58.8813 12.5192 58.6841 12.7628 58.5748 13.0312L57.1777 12.7131C57.3435 12.2491 57.5854 11.8745 57.9036 11.5895C58.2251 11.3011 58.5946 11.0923 59.0123 10.9631C59.4299 10.8305 59.869 10.7642 60.3297 10.7642C60.6346 10.7642 60.9578 10.8007 61.2992 10.8736C61.6439 10.9432 61.9654 11.0724 62.2637 11.2614C62.5653 11.4503 62.8122 11.7204 63.0044 12.0717C63.1967 12.4197 63.2928 12.8722 63.2928 13.429V18.5H61.8411V17.456H61.7814C61.6853 17.6482 61.5411 17.8371 61.3489 18.0227C61.1567 18.2083 60.9097 18.3625 60.6081 18.4851C60.3065 18.6077 59.9453 18.669 59.5243 18.669ZM59.8475 17.4759C60.2585 17.4759 60.6098 17.3946 60.9015 17.2322C61.1964 17.0698 61.4202 16.8577 61.5726 16.5959C61.7284 16.3307 61.8063 16.0473 61.8063 15.7457V14.7614C61.7533 14.8144 61.6505 14.8641 61.498 14.9105C61.3489 14.9536 61.1782 14.9917 60.986 15.0249C60.7937 15.0547 60.6065 15.0829 60.4242 15.1094C60.2419 15.1326 60.0894 15.1525 59.9668 15.169C59.6784 15.2055 59.415 15.2668 59.1763 15.353C58.941 15.4392 58.7521 15.5634 58.6096 15.7259C58.4703 15.8849 58.4007 16.0971 58.4007 16.3622C58.4007 16.7301 58.5366 17.0085 58.8084 17.1974C59.0802 17.383 59.4266 17.4759 59.8475 17.4759ZM66.7592 8.31818V18.5H65.2727V8.31818H66.7592ZM72.0502 18.6541C71.2979 18.6541 70.6499 18.4934 70.1064 18.1719C69.5661 17.8471 69.1485 17.3913 68.8535 16.8047C68.5618 16.2147 68.416 15.5237 68.416 14.7315C68.416 13.9493 68.5618 13.2599 68.8535 12.6634C69.1485 12.0668 69.5595 11.6011 70.0865 11.2663C70.6168 10.9316 71.2366 10.7642 71.9458 10.7642C72.3767 10.7642 72.7943 10.8355 73.1987 10.978C73.603 11.1205 73.966 11.3442 74.2875 11.6491C74.609 11.9541 74.8625 12.3501 75.0481 12.8374C75.2337 13.3213 75.3265 13.9096 75.3265 14.6023V15.1293H69.2562V14.0156H73.8699C73.8699 13.6245 73.7903 13.2782 73.6312 12.9766C73.4721 12.6716 73.2484 12.4313 72.96 12.2557C72.675 12.08 72.3403 11.9922 71.9558 11.9922C71.5382 11.9922 71.1736 12.0949 70.862 12.3004C70.5538 12.5026 70.3152 12.7678 70.1461 13.0959C69.9804 13.4207 69.8975 13.7737 69.8975 14.1548V15.0249C69.8975 15.5353 69.987 15.9695 70.166 16.3274C70.3483 16.6854 70.6019 16.9588 70.9267 17.1477C71.2515 17.3333 71.631 17.4261 72.0652 17.4261C72.3469 17.4261 72.6038 17.3864 72.8358 17.3068C73.0678 17.224 73.2683 17.1013 73.4373 16.9389C73.6064 16.7765 73.7356 16.576 73.8251 16.3374L75.2321 16.5909C75.1194 17.0052 74.9172 17.3681 74.6255 17.6797C74.3372 17.9879 73.9743 18.2282 73.5368 18.4006C73.1026 18.5696 72.6071 18.6541 72.0502 18.6541Z" fill="#1F2A40"/>
</svg>
