<svg width="77" height="26" viewBox="0 0 77 26" fill="none" xmlns="http://www.w3.org/2000/svg">
<rect y="0.5" width="77" height="25" rx="12.5" fill="#EB5757"/>
<path d="M17.3366 8.31818V18.5H15.9247L10.7493 11.0327H10.6548V18.5H9.11861V8.31818H10.5405L15.7209 15.7955H15.8153V8.31818H17.3366ZM22.6749 18.6541C21.959 18.6541 21.3342 18.4901 20.8006 18.1619C20.267 17.8338 19.8527 17.3748 19.5577 16.7848C19.2627 16.1948 19.1152 15.5054 19.1152 14.7166C19.1152 13.9245 19.2627 13.2318 19.5577 12.6385C19.8527 12.0452 20.267 11.5845 20.8006 11.2564C21.3342 10.9283 21.959 10.7642 22.6749 10.7642C23.3908 10.7642 24.0156 10.9283 24.5492 11.2564C25.0828 11.5845 25.4971 12.0452 25.7921 12.6385C26.0871 13.2318 26.2346 13.9245 26.2346 14.7166C26.2346 15.5054 26.0871 16.1948 25.7921 16.7848C25.4971 17.3748 25.0828 17.8338 24.5492 18.1619C24.0156 18.4901 23.3908 18.6541 22.6749 18.6541ZM22.6799 17.4062C23.1439 17.4062 23.5284 17.2836 23.8333 17.0384C24.1382 16.7931 24.3636 16.4666 24.5094 16.0589C24.6586 15.6513 24.7331 15.2022 24.7331 14.7116C24.7331 14.2244 24.6586 13.777 24.5094 13.3693C24.3636 12.9583 24.1382 12.6286 23.8333 12.38C23.5284 12.1314 23.1439 12.0071 22.6799 12.0071C22.2125 12.0071 21.8248 12.1314 21.5165 12.38C21.2116 12.6286 20.9846 12.9583 20.8354 13.3693C20.6896 13.777 20.6167 14.2244 20.6167 14.7116C20.6167 15.2022 20.6896 15.6513 20.8354 16.0589C20.9846 16.4666 21.2116 16.7931 21.5165 17.0384C21.8248 17.2836 22.2125 17.4062 22.6799 17.4062ZM37.2715 10.9929C37.2185 10.5223 36.9997 10.1577 36.6152 9.89915C36.2308 9.63731 35.7469 9.50639 35.1635 9.50639C34.7459 9.50639 34.3846 9.57268 34.0797 9.70526C33.7748 9.83452 33.5378 10.0135 33.3688 10.2422C33.2031 10.4676 33.1202 10.7244 33.1202 11.0128C33.1202 11.2547 33.1766 11.4635 33.2892 11.6392C33.4052 11.8149 33.556 11.9624 33.7417 12.0817C33.9306 12.1977 34.1328 12.2955 34.3482 12.375C34.5636 12.4512 34.7708 12.5142 34.9696 12.5639L35.964 12.8224C36.2888 12.902 36.6219 13.0097 36.9632 13.1456C37.3046 13.2815 37.6212 13.4605 37.9128 13.6825C38.2045 13.9046 38.4398 14.1797 38.6188 14.5078C38.8011 14.8359 38.8922 15.2287 38.8922 15.6861C38.8922 16.2628 38.7431 16.7749 38.4448 17.2223C38.1498 17.6697 37.7206 18.0227 37.1571 18.2812C36.597 18.5398 35.9192 18.669 35.1238 18.669C34.3614 18.669 33.7019 18.5481 33.1451 18.3061C32.5882 18.0642 32.1524 17.7211 31.8375 17.277C31.5227 16.8295 31.3487 16.2992 31.3155 15.6861H32.8567C32.8865 16.054 33.0059 16.3606 33.2147 16.6058C33.4268 16.8478 33.6969 17.0284 34.025 17.1477C34.3565 17.2637 34.7194 17.3217 35.1138 17.3217C35.548 17.3217 35.9341 17.2538 36.2722 17.1179C36.6136 16.9787 36.882 16.7865 37.0776 16.5412C37.2731 16.2926 37.3709 16.0026 37.3709 15.6712C37.3709 15.3696 37.2847 15.1226 37.1124 14.9304C36.9434 14.7382 36.713 14.5791 36.4213 14.4531C36.133 14.3272 35.8065 14.2161 35.4419 14.12L34.2388 13.7919C33.4235 13.5698 32.7772 13.2434 32.2999 12.8125C31.8259 12.3816 31.589 11.8116 31.589 11.1023C31.589 10.5156 31.748 10.0036 32.0662 9.56605C32.3844 9.12855 32.8153 8.78883 33.3588 8.54688C33.9024 8.30161 34.5156 8.17898 35.1983 8.17898C35.8877 8.17898 36.4959 8.29995 37.0229 8.5419C37.5532 8.78385 37.9708 9.11695 38.2757 9.54119C38.5807 9.96212 38.7398 10.446 38.753 10.9929H37.2715ZM44.1733 10.8636V12.0568H40.0021V10.8636H44.1733ZM41.1207 9.03409H42.6072V16.2578C42.6072 16.5462 42.6503 16.7633 42.7365 16.9091C42.8227 17.0516 42.9337 17.1494 43.0696 17.2024C43.2088 17.2521 43.3596 17.277 43.522 17.277C43.6413 17.277 43.7457 17.2687 43.8352 17.2521C43.9247 17.2356 43.9943 17.2223 44.044 17.2124L44.3125 18.4403C44.2263 18.4735 44.1037 18.5066 43.9446 18.5398C43.7855 18.5762 43.5866 18.5961 43.348 18.5994C42.9569 18.6061 42.5923 18.5365 42.2543 18.3906C41.9162 18.2448 41.6428 18.0194 41.4339 17.7145C41.2251 17.4096 41.1207 17.0268 41.1207 16.5661V9.03409ZM48.9522 18.6541C48.2363 18.6541 47.6116 18.4901 47.0779 18.1619C46.5443 17.8338 46.13 17.3748 45.835 16.7848C45.5401 16.1948 45.3926 15.5054 45.3926 14.7166C45.3926 13.9245 45.5401 13.2318 45.835 12.6385C46.13 12.0452 46.5443 11.5845 47.0779 11.2564C47.6116 10.9283 48.2363 10.7642 48.9522 10.7642C49.6681 10.7642 50.2929 10.9283 50.8265 11.2564C51.3601 11.5845 51.7744 12.0452 52.0694 12.6385C52.3644 13.2318 52.5119 13.9245 52.5119 14.7166C52.5119 15.5054 52.3644 16.1948 52.0694 16.7848C51.7744 17.3748 51.3601 17.8338 50.8265 18.1619C50.2929 18.4901 49.6681 18.6541 48.9522 18.6541ZM48.9572 17.4062C49.4212 17.4062 49.8057 17.2836 50.1106 17.0384C50.4155 16.7931 50.6409 16.4666 50.7868 16.0589C50.9359 15.6513 51.0105 15.2022 51.0105 14.7116C51.0105 14.2244 50.9359 13.777 50.7868 13.3693C50.6409 12.9583 50.4155 12.6286 50.1106 12.38C49.8057 12.1314 49.4212 12.0071 48.9572 12.0071C48.4899 12.0071 48.1021 12.1314 47.7939 12.38C47.4889 12.6286 47.2619 12.9583 47.1127 13.3693C46.9669 13.777 46.894 14.2244 46.894 14.7116C46.894 15.2022 46.9669 15.6513 47.1127 16.0589C47.2619 16.4666 47.4889 16.7931 47.7939 17.0384C48.1021 17.2836 48.4899 17.4062 48.9572 17.4062ZM57.3878 18.6541C56.6487 18.6541 56.0123 18.4867 55.4787 18.152C54.9484 17.8139 54.5407 17.3482 54.2557 16.755C53.9706 16.1617 53.8281 15.4822 53.8281 14.7166C53.8281 13.9411 53.974 13.2566 54.2656 12.6634C54.5573 12.0668 54.9683 11.6011 55.4986 11.2663C56.0289 10.9316 56.6536 10.7642 57.3729 10.7642C57.9529 10.7642 58.4699 10.8719 58.924 11.0874C59.3781 11.2995 59.7443 11.5978 60.0227 11.9822C60.3045 12.3667 60.4718 12.8158 60.5249 13.3295H59.0781C58.9986 12.9716 58.8163 12.6634 58.5312 12.4048C58.2495 12.1463 57.8717 12.017 57.3977 12.017C56.9834 12.017 56.6205 12.1264 56.3089 12.3452C56.0007 12.5606 55.7604 12.8688 55.5881 13.2699C55.4157 13.6676 55.3295 14.1383 55.3295 14.6818C55.3295 15.2386 55.4141 15.7192 55.5831 16.1236C55.7521 16.5279 55.9908 16.8411 56.299 17.0632C56.6106 17.2853 56.9768 17.3963 57.3977 17.3963C57.6795 17.3963 57.9347 17.3449 58.1634 17.2422C58.3954 17.1361 58.5893 16.9853 58.745 16.7898C58.9041 16.5942 59.0152 16.3589 59.0781 16.0838H60.5249C60.4718 16.5777 60.3111 17.0185 60.0426 17.4062C59.7741 17.794 59.4145 18.099 58.9638 18.321C58.5163 18.5431 57.991 18.6541 57.3878 18.6541ZM63.4817 15.9098L63.4718 14.0952H63.7303L66.7729 10.8636H68.5527L65.0826 14.5426H64.8489L63.4817 15.9098ZM62.1145 18.5V8.31818H63.601V18.5H62.1145ZM66.937 18.5L64.2026 14.8707L65.2267 13.8317L68.7615 18.5H66.937Z" fill="white"/>
</svg>
